<?xml version="1.0" encoding="UTF-8"?>
<svg width="52px" height="55px" viewBox="0 0 52 55" version="1.1" xmlns="http://www.w3.org/2000/svg" xmlns:xlink="http://www.w3.org/1999/xlink" xmlns:sketch="http://www.bohemiancoding.com/sketch/ns">
    <!-- Generator: Sketch 3.3.3 (12081) - http://www.bohemiancoding.com/sketch -->
    <title>Untitled 4</title>
    <desc>Created with Sketch.</desc>
    <defs></defs>
    <g id="Page-1" stroke="none" stroke-width="1" fill="none" fill-rule="evenodd" sketch:type="MSPage">
        <g id="shop" sketch:type="MSLayerGroup">
            <path d="M46.7844,18.0452381 C46.6388,16.717381 45.526,15.7142857 44.2,15.7142857 L39,15.7142857 L39,13.0952381 L44.2,13.0952381 C45.6352,13.0952381 46.8,11.9219048 46.8,10.4761905 L46.8,2.61904762 C46.8,1.17333333 45.6352,0 44.2,0 L28.6,0 C27.1648,0 26,1.17333333 26,2.61904762 L26,10.4761905 C26,11.9219048 27.1648,13.0952381 28.6,13.0952381 L33.8,13.0952381 L33.8,15.7142857 L23.4,15.7142857 L23.4,5.23809524 C23.4,4.32928571 22.932,3.48857143 22.1676,3.01190476 C21.4006,2.53261905 20.4412,2.49071429 19.6378,2.89666667 L15.6,4.92904762 L11.5622,2.89666667 C10.7588,2.49071429 9.7994,2.53261905 9.0324,3.01190476 C8.268,3.48857143 7.8,4.32928571 7.8,5.23809524 L7.8,15.7142857 C6.474,15.7142857 5.3638,16.717381 5.2156,18.0452381 L3.1304,39.2857143 L48.8696,39.2857143 L46.7844,18.0452381 L46.7844,18.0452381 Z M13,9.47833333 L14.4378,10.1985714 C15.1684,10.5678571 16.0316,10.5678571 16.7648,10.1985714 L18.2,9.47833333 L18.2,15.7142857 L13,15.7142857 L13,9.47833333 L13,9.47833333 Z M20.8,26.1904762 L10.4,26.1904762 L10.4,20.952381 L20.8,20.952381 L20.8,26.1904762 L20.8,26.1904762 Z M31.2,7.85714286 L31.2,5.23809524 L41.6,5.23809524 L41.6,7.85714286 L31.2,7.85714286 L31.2,7.85714286 Z M28.6,34.047619 C27.1648,34.047619 26,32.8769048 26,31.4285714 C26,29.9828571 27.1648,28.8095238 28.6,28.8095238 C30.0352,28.8095238 31.2,29.9828571 31.2,31.4285714 C31.2,32.8769048 30.0352,34.047619 28.6,34.047619 L28.6,34.047619 Z M28.6,26.1904762 C27.1648,26.1904762 26,25.0197619 26,23.5714286 C26,22.1257143 27.1648,20.952381 28.6,20.952381 C30.0352,20.952381 31.2,22.1257143 31.2,23.5714286 C31.2,25.0197619 30.0352,26.1904762 28.6,26.1904762 L28.6,26.1904762 Z M36.4,34.047619 C34.9648,34.047619 33.8,32.8769048 33.8,31.4285714 C33.8,29.9828571 34.9648,28.8095238 36.4,28.8095238 C37.8352,28.8095238 39,29.9828571 39,31.4285714 C39,32.8769048 37.8352,34.047619 36.4,34.047619 L36.4,34.047619 Z M36.4,26.1904762 C34.9648,26.1904762 33.8,25.0197619 33.8,23.5714286 C33.8,22.1257143 34.9648,20.952381 36.4,20.952381 C37.8352,20.952381 39,22.1257143 39,23.5714286 C39,25.0197619 37.8352,26.1904762 36.4,26.1904762 L36.4,26.1904762 Z" id="Shape" fill="#8A1E91" sketch:type="MSShapeGroup"></path>
            <path d="M2.6,41.9047619 C1.1648,41.9047619 0,43.0780952 0,44.5238095 L0,52.3809524 C0,53.8266667 1.1648,55 2.6,55 L49.4,55 C50.8352,55 52,53.8266667 52,52.3809524 L52,44.5238095 C52,43.0780952 50.8352,41.9047619 49.4,41.9047619 L2.6,41.9047619 Z" id="Shape" fill="#644DD0" sketch:type="MSShapeGroup"></path>
        </g>
    </g>
</svg>